<svg width="120" height="34" viewBox="0 0 120 34" fill="none" xmlns="http://www.w3.org/2000/svg">
<path d="M11.0918 6.39012L13.5489 1.0426V32.1139L11.3701 32.9981C11.3701 32.9981 11.0918 13.9167 11.0918 6.39012Z" fill="url(#paint0_linear_4234_4692)"/>
<path d="M4.45312 8.79283L6.58439 3.83704L6.65828 29.6274L4.47151 27.3381C4.47151 27.3381 4.45312 15.1205 4.45312 8.79283Z" fill="url(#paint1_linear_4234_4692)"/>
<path d="M11.3722 32.1784L11.3498 29.4714C11.3479 22.3694 11.3498 15.2674 11.333 8.16538L11.346 8.1915V5.85089L9.89107 5.20933L9.89667 5.22052C8.84276 4.76172 7.7534 4.32344 6.58571 3.83667V6.44956C6.58384 13.8462 6.57944 22.1693 6.59995 29.5659C6.69643 29.6793 6.9178 29.8678 6.96816 29.9107C7.16775 30.0879 7.37288 30.2491 7.57433 30.4207C8.19922 30.9485 8.87074 31.4297 9.54972 31.8847C9.90413 32.1216 10.2641 32.3491 10.6297 32.5673C10.6932 32.6046 11.3703 32.9497 11.3721 33C11.3647 32.6251 11.3908 32.6036 11.3722 32.1784Z" fill="url(#paint2_linear_4234_4692)"/>
<path d="M23.4422 5.11237V13.6337C23.2948 22.6268 19.6278 28.1196 13.5039 32.135L13.5373 1C14.4905 1.38792 15.3635 1.73668 16.2308 2.0985C18.2771 2.95454 20.3196 3.81805 22.3659 4.66663C22.7241 4.81583 23.0841 4.96503 23.4422 5.11237Z" fill="url(#paint3_linear_4234_4692)"/>
<path d="M4.47306 21.8902C4.47306 21.7448 4.47306 21.5993 4.47306 21.4538C4.47306 19.2811 4.47306 17.1288 4.4712 14.9859C4.4712 14.9095 4.4712 14.8349 4.4712 14.7584C4.4712 14.2269 4.46933 13.6953 4.46933 13.1657C4.46933 12.7311 4.46747 12.2966 4.46747 11.8658C4.46747 11.6923 4.46747 11.5189 4.46747 11.3454C4.46747 11.144 4.46747 10.9444 4.4656 10.7449L4.46933 10.7598L4.48239 8.77915L4.17834 8.64113C4.17834 8.64113 4.17834 8.64113 4.17648 8.63927C4.16901 8.63554 4.16155 8.63181 4.15223 8.62808L3.96196 8.54042V8.54415C2.67488 7.966 1.36356 7.43074 0 6.86377V13.6319C0.0802092 18.4978 1.17889 22.3379 3.14308 25.473C3.52734 26.0828 3.70268 26.3271 4.1373 26.8978C4.1485 26.9127 4.45627 27.3193 4.4712 27.3324C4.4712 25.8105 4.4712 24.2719 4.4712 22.7295C4.47306 22.4498 4.47306 22.17 4.47306 21.8902Z" fill="url(#paint4_linear_4234_4692)"/>
<path d="M28.5406 16V4.28418H33.1097C34.1363 4.28418 35.0122 4.44598 35.7374 4.76956C36.4627 5.09313 37.0206 5.56177 37.4111 6.17545C37.8016 6.78914 37.9969 7.51998 37.9969 8.36798C37.9969 9.21599 37.8016 9.94683 37.4111 10.5605C37.0206 11.163 36.4627 11.6317 35.7374 11.9664C35.0122 12.29 34.1363 12.4518 33.1097 12.4518H29.4611L30.2143 11.6651V16H28.5406ZM30.2143 11.8325L29.4611 10.9957H33.0595C34.1307 10.9957 34.9396 10.7669 35.4864 10.3095C36.0443 9.85199 36.3232 9.20483 36.3232 8.36798C36.3232 7.53114 36.0443 6.88398 35.4864 6.42651C34.9396 5.96903 34.1307 5.74029 33.0595 5.74029H29.4611L30.2143 4.90345V11.8325ZM43.4692 16.1004C42.5208 16.1004 41.6839 15.9052 40.9587 15.5146C40.2446 15.1241 39.6867 14.5885 39.285 13.9079C38.8945 13.2273 38.6992 12.4462 38.6992 11.5647C38.6992 10.6833 38.8889 9.9022 39.2683 9.22156C39.6588 8.54093 40.1888 8.01093 40.8583 7.63156C41.5389 7.24103 42.3032 7.04577 43.1512 7.04577C44.0104 7.04577 44.7691 7.23545 45.4274 7.61482C46.0857 7.99419 46.599 8.52977 46.9672 9.22156C47.3466 9.9022 47.5363 10.7 47.5363 11.6149C47.5363 11.6819 47.5307 11.76 47.5195 11.8493C47.5195 11.9385 47.514 12.0222 47.5028 12.1003H39.9545V10.9455H46.666L46.0132 11.3471C46.0244 10.7781 45.9072 10.2704 45.6617 9.82409C45.4163 9.37778 45.076 9.03188 44.6408 8.78641C44.2168 8.52977 43.7203 8.40146 43.1512 8.40146C42.5933 8.40146 42.0968 8.52977 41.6616 8.78641C41.2265 9.03188 40.8862 9.38335 40.6407 9.84083C40.3952 10.2871 40.2725 10.8004 40.2725 11.3806V11.6484C40.2725 12.2398 40.4064 12.7698 40.6742 13.2384C40.9531 13.6959 41.3381 14.0529 41.829 14.3096C42.32 14.5662 42.8834 14.6945 43.5194 14.6945C44.0438 14.6945 44.5181 14.6053 44.9421 14.4267C45.3772 14.2482 45.7566 13.9804 46.0802 13.6234L46.9672 14.661C46.5655 15.1297 46.0634 15.4867 45.4609 15.7322C44.8695 15.9777 44.2056 16.1004 43.4692 16.1004ZM49.0979 16V7.12945H50.6377V9.53957L50.4871 8.93704C50.7325 8.32335 51.1454 7.85472 51.7256 7.53114C52.3058 7.20756 53.0199 7.04577 53.8679 7.04577V8.6023C53.801 8.59114 53.734 8.58556 53.6671 8.58556C53.6113 8.58556 53.5555 8.58556 53.4997 8.58556C52.6405 8.58556 51.9599 8.8422 51.4578 9.35546C50.9557 9.86872 50.7046 10.6107 50.7046 11.5815V16H49.0979ZM66.2753 7.04577C66.9894 7.04577 67.6198 7.18524 68.1666 7.46419C68.7133 7.74314 69.1373 8.16714 69.4386 8.73619C69.751 9.30525 69.9072 10.0249 69.9072 10.8953V16H68.3005V11.0794C68.3005 10.2202 68.0996 9.57304 67.6979 9.13788C67.2963 8.70272 66.7328 8.48514 66.0075 8.48514C65.4719 8.48514 65.0033 8.59672 64.6016 8.81988C64.1999 9.04304 63.8875 9.3722 63.6644 9.80736C63.4524 10.2425 63.3464 10.7837 63.3464 11.4308V16H61.7396V11.0794C61.7396 10.2202 61.5388 9.57304 61.1371 9.13788C60.7466 8.70272 60.1831 8.48514 59.4467 8.48514C58.9222 8.48514 58.4592 8.59672 58.0575 8.81988C57.6558 9.04304 57.3434 9.3722 57.1202 9.80736C56.8971 10.2425 56.7855 10.7837 56.7855 11.4308V16H55.1788V7.12945H56.7185V9.48935L56.4675 8.88683C56.7464 8.30661 57.176 7.85472 57.7562 7.53114C58.3364 7.20756 59.0115 7.04577 59.7814 7.04577C60.6294 7.04577 61.3602 7.25777 61.9739 7.68177C62.5876 8.09461 62.9893 8.72504 63.179 9.57304L62.5262 9.30525C62.794 8.62462 63.2627 8.07788 63.9321 7.66503C64.6016 7.25219 65.3827 7.04577 66.2753 7.04577ZM76.0771 19.3474C75.2626 19.3474 74.4704 19.2302 73.7005 18.9959C72.9417 18.7727 72.3225 18.4492 71.8427 18.0252L72.6126 16.7866C73.0254 17.1437 73.5331 17.4226 74.1356 17.6235C74.7382 17.8355 75.3686 17.9415 76.0269 17.9415C77.0757 17.9415 77.8456 17.696 78.3366 17.2051C78.8275 16.7141 79.073 15.9665 79.073 14.9623V13.0878L79.2404 11.3304L79.1567 9.5563V7.12945H80.6797V14.7949C80.6797 16.3571 80.2892 17.5063 79.5082 18.2427C78.7271 18.9792 77.5834 19.3474 76.0771 19.3474ZM75.8763 15.6318C75.0171 15.6318 74.2472 15.4533 73.5666 15.0962C72.8971 14.728 72.3615 14.2203 71.9598 13.5732C71.5693 12.926 71.374 12.1784 71.374 11.3304C71.374 10.4713 71.5693 9.72367 71.9598 9.08767C72.3615 8.44051 72.8971 7.9384 73.5666 7.58135C74.2472 7.2243 75.0171 7.04577 75.8763 7.04577C76.635 7.04577 77.3268 7.20198 77.9516 7.5144C78.5765 7.81567 79.073 8.2843 79.4412 8.9203C79.8206 9.5563 80.0103 10.3597 80.0103 11.3304C80.0103 12.29 79.8206 13.0878 79.4412 13.7238C79.073 14.3598 78.5765 14.8396 77.9516 15.1632C77.3268 15.4756 76.635 15.6318 75.8763 15.6318ZM76.0604 14.2259C76.6517 14.2259 77.1762 14.1032 77.6336 13.8577C78.0911 13.6122 78.4482 13.2719 78.7048 12.8367C78.9726 12.4016 79.1065 11.8995 79.1065 11.3304C79.1065 10.7614 78.9726 10.2593 78.7048 9.82409C78.4482 9.38893 78.0911 9.0542 77.6336 8.81988C77.1762 8.5744 76.6517 8.45167 76.0604 8.45167C75.469 8.45167 74.939 8.5744 74.4704 8.81988C74.0129 9.0542 73.6503 9.38893 73.3825 9.82409C73.1258 10.2593 72.9975 10.7614 72.9975 11.3304C72.9975 11.8995 73.1258 12.4016 73.3825 12.8367C73.6503 13.2719 74.0129 13.6122 74.4704 13.8577C74.939 14.1032 75.469 14.2259 76.0604 14.2259ZM86.8126 16.1004C86.0539 16.1004 85.3844 15.9609 84.8042 15.682C84.2352 15.4031 83.7888 14.9791 83.4653 14.41C83.1528 13.8298 82.9966 13.1045 82.9966 12.2342V7.12945H84.6034V12.0501C84.6034 12.9204 84.8098 13.5732 85.2226 14.0083C85.6466 14.4435 86.238 14.661 86.9967 14.661C87.5546 14.661 88.04 14.5495 88.4528 14.3263C88.8657 14.092 89.1837 13.7573 89.4068 13.3221C89.63 12.8758 89.7416 12.3402 89.7416 11.7154V7.12945H91.3483V16H89.8253V13.6066L90.0763 14.2426C89.7862 14.834 89.3511 15.2915 88.7708 15.6151C88.1906 15.9386 87.5379 16.1004 86.8126 16.1004ZM99.2441 16V14.1255L99.1604 13.774V10.5773C99.1604 9.89662 98.9595 9.3722 98.5579 9.00399C98.1673 8.62462 97.576 8.43493 96.7838 8.43493C96.2593 8.43493 95.7461 8.52419 95.244 8.70272C94.7419 8.87009 94.3179 9.09883 93.972 9.38893L93.3025 8.18388C93.76 7.81567 94.3067 7.53672 94.9427 7.34703C95.5899 7.14619 96.2649 7.04577 96.9679 7.04577C98.1841 7.04577 99.1213 7.34145 99.7797 7.93282C100.438 8.52419 100.767 9.42799 100.767 10.6442V16H99.2441ZM96.3319 16.1004C95.6735 16.1004 95.0933 15.9888 94.5912 15.7657C94.1003 15.5425 93.7209 15.2357 93.4531 14.8452C93.1853 14.4435 93.0514 13.9916 93.0514 13.4895C93.0514 13.0097 93.163 12.5745 93.3862 12.184C93.6205 11.7935 93.9943 11.481 94.5075 11.2467C95.032 11.0124 95.7349 10.8953 96.6164 10.8953H99.4282V12.0501H96.6833C95.88 12.0501 95.3388 12.184 95.0599 12.4518C94.7809 12.7196 94.6414 13.0432 94.6414 13.4225C94.6414 13.8577 94.8144 14.2092 95.1603 14.4769C95.5062 14.7336 95.986 14.8619 96.5996 14.8619C97.2022 14.8619 97.7266 14.728 98.1729 14.4602C98.6304 14.1924 98.9595 13.8019 99.1604 13.2886L99.4784 14.3933C99.2664 14.9177 98.8926 15.3361 98.357 15.6485C97.8214 15.9498 97.1464 16.1004 96.3319 16.1004ZM103.071 16V7.12945H104.611V9.53957L104.46 8.93704C104.706 8.32335 105.119 7.85472 105.699 7.53114C106.279 7.20756 106.993 7.04577 107.841 7.04577V8.6023C107.774 8.59114 107.707 8.58556 107.64 8.58556C107.584 8.58556 107.529 8.58556 107.473 8.58556C106.614 8.58556 105.933 8.8422 105.431 9.35546C104.929 9.86872 104.678 10.6107 104.678 11.5815V16H103.071ZM112.736 16.1004C111.876 16.1004 111.107 15.9107 110.426 15.5314C109.756 15.152 109.226 14.622 108.836 13.9414C108.445 13.2607 108.25 12.4685 108.25 11.5647C108.25 10.6609 108.445 9.8743 108.836 9.20483C109.226 8.52419 109.756 7.99419 110.426 7.61482C111.107 7.23545 111.876 7.04577 112.736 7.04577C113.483 7.04577 114.158 7.21314 114.761 7.54788C115.363 7.88261 115.843 8.38472 116.2 9.0542C116.568 9.72367 116.752 10.5605 116.752 11.5647C116.752 12.5689 116.574 13.4058 116.217 14.0753C115.871 14.7447 115.397 15.2524 114.794 15.5983C114.192 15.9331 113.505 16.1004 112.736 16.1004ZM112.869 14.6945C113.427 14.6945 113.929 14.5662 114.376 14.3096C114.833 14.0529 115.19 13.6903 115.447 13.2217C115.715 12.7419 115.849 12.1896 115.849 11.5647C115.849 10.9287 115.715 10.382 115.447 9.92451C115.19 9.45588 114.833 9.09325 114.376 8.83662C113.929 8.57998 113.427 8.45167 112.869 8.45167C112.3 8.45167 111.793 8.57998 111.346 8.83662C110.9 9.09325 110.543 9.45588 110.275 9.92451C110.007 10.382 109.874 10.9287 109.874 11.5647C109.874 12.1896 110.007 12.7419 110.275 13.2217C110.543 13.6903 110.9 14.0529 111.346 14.3096C111.793 14.5662 112.3 14.6945 112.869 14.6945ZM115.899 16V13.6066L115.999 11.548L115.832 9.48935V3.58124H117.439V16H115.899Z" fill="white"/>
<path d="M29.5532 31V23.3H33.0732C33.7772 23.3 34.3822 23.4137 34.8882 23.641C35.4015 23.8683 35.7975 24.1983 36.0762 24.631C36.3549 25.0563 36.4942 25.5623 36.4942 26.149C36.4942 26.7283 36.3549 27.2307 36.0762 27.656C35.7975 28.0813 35.4015 28.4113 34.8882 28.646C34.3822 28.8733 33.7772 28.987 33.0732 28.987H30.7632L31.7312 28.041V31H29.5532ZM31.7312 28.272L30.7632 27.271H32.9412C33.3959 27.271 33.7332 27.172 33.9532 26.974C34.1805 26.776 34.2942 26.501 34.2942 26.149C34.2942 25.7897 34.1805 25.511 33.9532 25.313C33.7332 25.115 33.3959 25.016 32.9412 25.016H30.7632L31.7312 24.015V28.272ZM38.4361 31V23.3H40.6141V29.273H44.2881V31H38.4361ZM45.1812 31L48.5802 23.3H50.7252L54.1352 31H51.8692L49.2072 24.367H50.0652L47.4032 31H45.1812ZM47.0402 29.504L47.6012 27.898H51.3632L51.9242 29.504H47.0402ZM57.0963 31V27.744L57.6023 29.053L54.1593 23.3H56.4583L58.9443 27.469H57.6133L60.1103 23.3H62.2223L58.7903 29.053L59.2743 27.744V31H57.0963ZM67.1732 31.154C66.5645 31.154 65.9999 31.0587 65.4792 30.868C64.9585 30.67 64.5075 30.3913 64.1262 30.032C63.7522 29.6727 63.4589 29.251 63.2462 28.767C63.0335 28.2757 62.9272 27.7367 62.9272 27.15C62.9272 26.5633 63.0335 26.028 63.2462 25.544C63.4589 25.0527 63.7559 24.6273 64.1372 24.268C64.5185 23.9087 64.9695 23.6337 65.4902 23.443C66.0182 23.245 66.5939 23.146 67.2172 23.146C67.9432 23.146 68.5922 23.267 69.1642 23.509C69.7362 23.751 70.2092 24.0993 70.5832 24.554L69.1972 25.808C68.9332 25.522 68.6472 25.3093 68.3392 25.17C68.0385 25.0233 67.7012 24.95 67.3272 24.95C66.9972 24.95 66.6965 25.0013 66.4252 25.104C66.1539 25.2067 65.9229 25.357 65.7322 25.555C65.5415 25.7457 65.3912 25.9767 65.2812 26.248C65.1785 26.512 65.1272 26.8127 65.1272 27.15C65.1272 27.4727 65.1785 27.7697 65.2812 28.041C65.3912 28.3123 65.5415 28.547 65.7322 28.745C65.9229 28.9357 66.1502 29.086 66.4142 29.196C66.6855 29.2987 66.9825 29.35 67.3052 29.35C67.6279 29.35 67.9432 29.2987 68.2512 29.196C68.5592 29.086 68.8709 28.9027 69.1862 28.646L70.4072 30.175C69.9672 30.4903 69.4575 30.7323 68.8782 30.901C68.2989 31.0697 67.7305 31.154 67.1732 31.154ZM68.4822 29.889V26.985H70.4072V30.175L68.4822 29.889ZM72.668 31V23.3H76.188C76.892 23.3 77.497 23.4137 78.003 23.641C78.5164 23.8683 78.9124 24.1983 79.191 24.631C79.4697 25.0563 79.609 25.5623 79.609 26.149C79.609 26.7283 79.4697 27.2307 79.191 27.656C78.9124 28.074 78.5164 28.3967 78.003 28.624C77.497 28.844 76.892 28.954 76.188 28.954H73.878L74.846 28.041V31H72.668ZM77.431 31L75.517 28.195H77.838L79.763 31H77.431ZM74.846 28.272L73.878 27.271H76.056C76.5107 27.271 76.848 27.172 77.068 26.974C77.2954 26.776 77.409 26.501 77.409 26.149C77.409 25.7897 77.2954 25.511 77.068 25.313C76.848 25.115 76.5107 25.016 76.056 25.016H73.878L74.846 24.015V28.272ZM85.5736 31.154C84.9576 31.154 84.3893 31.055 83.8686 30.857C83.348 30.659 82.8933 30.3803 82.5046 30.021C82.1233 29.6543 81.8263 29.229 81.6136 28.745C81.401 28.261 81.2946 27.7293 81.2946 27.15C81.2946 26.5707 81.401 26.039 81.6136 25.555C81.8263 25.071 82.1233 24.6493 82.5046 24.29C82.8933 23.9233 83.348 23.641 83.8686 23.443C84.3893 23.245 84.9576 23.146 85.5736 23.146C86.197 23.146 86.7653 23.245 87.2786 23.443C87.7993 23.641 88.2503 23.9233 88.6316 24.29C89.013 24.6493 89.31 25.071 89.5226 25.555C89.7426 26.039 89.8526 26.5707 89.8526 27.15C89.8526 27.7293 89.7426 28.2647 89.5226 28.756C89.31 29.24 89.013 29.6617 88.6316 30.021C88.2503 30.3803 87.7993 30.659 87.2786 30.857C86.7653 31.055 86.197 31.154 85.5736 31.154ZM85.5736 29.35C85.867 29.35 86.1383 29.2987 86.3876 29.196C86.6443 29.0933 86.8643 28.9467 87.0476 28.756C87.2383 28.558 87.385 28.3233 87.4876 28.052C87.5976 27.7807 87.6526 27.48 87.6526 27.15C87.6526 26.8127 87.5976 26.512 87.4876 26.248C87.385 25.9767 87.2383 25.7457 87.0476 25.555C86.8643 25.357 86.6443 25.2067 86.3876 25.104C86.1383 25.0013 85.867 24.95 85.5736 24.95C85.2803 24.95 85.0053 25.0013 84.7486 25.104C84.4993 25.2067 84.2793 25.357 84.0886 25.555C83.9053 25.7457 83.7586 25.9767 83.6486 26.248C83.546 26.512 83.4946 26.8127 83.4946 27.15C83.4946 27.48 83.546 27.7807 83.6486 28.052C83.7586 28.3233 83.9053 28.558 84.0886 28.756C84.2793 28.9467 84.4993 29.0933 84.7486 29.196C85.0053 29.2987 85.2803 29.35 85.5736 29.35ZM95.4264 31.154C94.2897 31.154 93.4024 30.8423 92.7644 30.219C92.1264 29.5957 91.8074 28.712 91.8074 27.568V23.3H93.9854V27.502C93.9854 28.162 94.1137 28.635 94.3704 28.921C94.6344 29.207 94.9937 29.35 95.4484 29.35C95.903 29.35 96.2587 29.207 96.5154 28.921C96.772 28.635 96.9004 28.162 96.9004 27.502V23.3H99.0454V27.568C99.0454 28.712 98.7264 29.5957 98.0884 30.219C97.4504 30.8423 96.563 31.154 95.4264 31.154ZM101.401 31V23.3H103.194L107.44 28.426H106.593V23.3H108.727V31H106.934L102.688 25.874H103.535V31H101.401ZM111.143 31V23.3H114.784C115.635 23.3 116.383 23.4577 117.028 23.773C117.673 24.0883 118.176 24.532 118.535 25.104C118.902 25.676 119.085 26.358 119.085 27.15C119.085 27.9347 118.902 28.6167 118.535 29.196C118.176 29.768 117.673 30.2117 117.028 30.527C116.383 30.8423 115.635 31 114.784 31H111.143ZM113.321 29.262H114.696C115.136 29.262 115.517 29.1813 115.84 29.02C116.17 28.8513 116.427 28.6093 116.61 28.294C116.793 27.9713 116.885 27.59 116.885 27.15C116.885 26.7027 116.793 26.3213 116.61 26.006C116.427 25.6907 116.17 25.4523 115.84 25.291C115.517 25.1223 115.136 25.038 114.696 25.038H113.321V29.262Z" fill="white"/>
<defs>
<linearGradient id="paint0_linear_4234_4692" x1="12.3292" y1="1.0426" x2="12.3292" y2="32.0722" gradientUnits="userSpaceOnUse">
<stop stop-color="#B94848"/>
<stop offset="1" stop-color="#851287"/>
</linearGradient>
<linearGradient id="paint1_linear_4234_4692" x1="5.34704" y1="3.83682" x2="5.34704" y2="29.9236" gradientUnits="userSpaceOnUse">
<stop stop-color="#B94848"/>
<stop offset="1" stop-color="#851287"/>
</linearGradient>
<linearGradient id="paint2_linear_4234_4692" x1="8.97801" y1="3.83667" x2="16.6677" y2="33.0026" gradientUnits="userSpaceOnUse">
<stop stop-color="#F25E79"/>
<stop offset="1" stop-color="#C52CF1"/>
</linearGradient>
<linearGradient id="paint3_linear_4234_4692" x1="13.5374" y1="-7.6003" x2="18.4831" y2="32.1336" gradientUnits="userSpaceOnUse">
<stop stop-color="#F05C80"/>
<stop offset="1" stop-color="#CC34DF"/>
</linearGradient>
<linearGradient id="paint4_linear_4234_4692" x1="-10.0667" y1="-1.18384" x2="8.21253" y2="35.2396" gradientUnits="userSpaceOnUse">
<stop stop-color="#FFD83E"/>
<stop offset="1" stop-color="#D038D7"/>
</linearGradient>
</defs>
</svg>
